# xmcd
#
# Track frame offsets: 
#        150
#        12827
#        30208
#        45978
#        60571
#        78383
#        94357
#        115372
#        131358
#
# Disc length: 2011 seconds
#
# Revision: 0
# Processed by: cddbd v1.5.1PL2 Copyright (c) Steve Scherf et al.
# Submitted via: ExactAudioCopy v0.95b1
#
DISCID=6307d909
DTITLE=Vince Gill - The Way Back Home
DYEAR=1987
DGENRE=Country
TTITLE0=Everybody's Sweatheart
TTITLE1=The Way Back Home
TTITLE2=Cinderella
TTITLE3=Let's Do Something
TTITLE4=The Radio
TTITLE5=Baby That's Tough
TTITLE6=Losing Your Love
TTITLE7=It Doesn't Matter Anymore
TTITLE8=Something's Missing
EXTD=
EXTT0=
EXTT1=
EXTT2=
EXTT3=
EXTT4=
EXTT5=
EXTT6=
EXTT7=
EXTT8=
PLAYORDER=
